HIERARCHY
ROOT Hips
{
	OFFSET 0.000000 0.000000 0.000000
	CHANNELS 6 Xposition Yposition Zposition Xrotation Yrotation Zrotation
	JOINT LeftUpLeg_virtual
	{
		OFFSET 0.000000 0.000000 0.000000
		CHANNELS 3 Xrotation Yrotation Zrotation
		JOINT LeftUpLeg
		{
			OFFSET 13.026900 -6.336304 -1.092800
			CHANNELS 3 Xrotation Yrotation Zrotation
			JOINT LeftLeg
			{
				OFFSET 0.524474 -46.096886 9.782700
				CHANNELS 3 Xrotation Yrotation Zrotation
				JOINT LeftFoot
				{
					OFFSET -0.524474 -53.427422 -12.948200
					CHANNELS 3 Xrotation Yrotation Zrotation
					JOINT LeftToeBase
					{
						OFFSET 0.192200 -14.009700 16.364100
						CHANNELS 3 Xrotation Yrotation Zrotation
						JOINT LeftToe_End
						{
							OFFSET -1.784700 -0.561700 9.474800
							CHANNELS 3 Xrotation Yrotation Zrotation
							End Site
							{
								OFFSET 0 0 0
							}
						}
					}
				}
			}
		}
	}
	JOINT RightUpLeg_virtual
	{
		OFFSET 0.000000 0.000000 0.000000
		CHANNELS 3 Xrotation Yrotation Zrotation
		JOINT RightUpLeg
		{
			OFFSET -12.883000 -6.336304 -1.092800
			CHANNELS 3 Xrotation Yrotation Zrotation
			JOINT RightLeg
			{
				OFFSET -0.524587 -46.096825 9.782800
				CHANNELS 3 Xrotation Yrotation Zrotation
				JOINT RightFoot
				{
					OFFSET 0.524587 -53.427383 -12.948300
					CHANNELS 3 Xrotation Yrotation Zrotation
					JOINT RightToeBase
					{
						OFFSET -0.192200 -14.009700 16.364100
						CHANNELS 3 Xrotation Yrotation Zrotation
						JOINT RightToe_End
						{
							OFFSET 1.784700 -0.561700 9.474800
							CHANNELS 3 Xrotation Yrotation Zrotation
							End Site
							{
								OFFSET 0 0 0
							}
						}
					}
				}
			}
		}
	}
	JOINT Spine_virtual
	{
		OFFSET 0.000000 0.000000 0.000000
		CHANNELS 3 Xrotation Yrotation Zrotation
		JOINT Spine
		{
			OFFSET 0.072000 7.257294 -0.789700
			CHANNELS 3 Xrotation Yrotation Zrotation
			JOINT Spine1
			{
				OFFSET 0.000000 12.508769 -0.658067
				CHANNELS 3 Xrotation Yrotation Zrotation
				JOINT Spine1_split
				{
					OFFSET 0.000000 12.508769 -0.658067
					CHANNELS 3 Xrotation Yrotation Zrotation
					JOINT Spine2
					{
						OFFSET 0.000000 12.508769 -0.658067
						CHANNELS 3 Xrotation Yrotation Zrotation
						JOINT Neck_virtual
						{
							OFFSET 0.000000 0.000000 0.000000
							CHANNELS 3 Xrotation Yrotation Zrotation
							JOINT Neck
							{
								OFFSET 0.000000 14.033295 7.520400
								CHANNELS 3 Xrotation Yrotation Zrotation
								JOINT Head
								{
									OFFSET 0.000000 8.198502 5.703100
									CHANNELS 3 Xrotation Yrotation Zrotation
									JOINT HeadTop_End
									{
										OFFSET 0.000000 17.760803 13.332701
										CHANNELS 3 Xrotation Yrotation Zrotation
										End Site
										{
											OFFSET 0 0 0
										}
									}
								}
							}
						}
						JOINT LeftShoulder_virtual
						{
							OFFSET 0.000000 0.000000 0.000000
							CHANNELS 3 Xrotation Yrotation Zrotation
							JOINT LeftShoulder
							{
								OFFSET 6.292450 5.785301 -0.669000
								CHANNELS 3 Xrotation Yrotation Zrotation
								JOINT LeftShoulder_split
								{
									OFFSET 6.292450 5.785301 -0.669000
									CHANNELS 3 Xrotation Yrotation Zrotation
									JOINT LeftArm
									{
										OFFSET 13.907140 -6.093903 1.965100
										CHANNELS 3 Xrotation Yrotation Zrotation
										JOINT LeftForeArm
										{
											OFFSET 34.140198 0.000000 0.000000
											CHANNELS 3 Xrotation Yrotation Zrotation
											JOINT LeftHand
											{
												OFFSET 40.960209 0.000000 0.000000
												CHANNELS 3 Xrotation Yrotation Zrotation
												End Site
												{
													OFFSET 0 0 0
												}
											}
										}
									}
								}
							}
						}
						JOINT RightShoulder_virtual
						{
							OFFSET 0.000000 0.000000 0.000000
							CHANNELS 3 Xrotation Yrotation Zrotation
							JOINT RightShoulder
							{
								OFFSET -6.292450 5.785301 -0.669000
								CHANNELS 3 Xrotation Yrotation Zrotation
								JOINT RightShoulder_split
								{
									OFFSET -6.292450 5.785301 -0.669000
									CHANNELS 3 Xrotation Yrotation Zrotation
									JOINT RightArm
									{
										OFFSET -13.907140 -6.093903 1.965100
										CHANNELS 3 Xrotation Yrotation Zrotation
										JOINT RightForeArm
										{
											OFFSET -34.140198 0.000000 0.000000
											CHANNELS 3 Xrotation Yrotation Zrotation
											JOINT RightHand
											{
												OFFSET -40.960209 0.000000 0.000000
												CHANNELS 3 Xrotation Yrotation Zrotation
												End Site
												{
													OFFSET 0 0 0
												}
											}
										}
									}
								}
							}
						}
					}
				}
			}
		}
	}
}
MOTION
Frames: 4
Frame Time: 0.03333333
80.419449 116.292679 188.767105 0.000000 0.000000 0.000000 -3.439454 42.731617 9.690590 -14.989844 10.778816 -15.732017 27.842114 -10.249561 -0.463070 21.395866 -0.709609 14.223685 -29.247526 0.019769 1.725552 0.000000 0.000000 0.000000 -3.439454 42.731617 9.690590 -17.696023 15.407549 -2.829897 49.176911 -6.956494 -0.539656 32.161609 -5.788295 -6.289977 -33.062890 -0.326136 4.760688 0.000000 0.000000 0.000000 -3.439454 42.731617 9.690590 2.619658 -1.010046 -7.841070 -1.325620 -1.163662 0.817525 0.000000 0.000000 0.000000 0.000000 0.000000 0.000000 -1.438975 -1.086679 0.916038 -7.118961 3.300073 1.481927 3.009341 7.256459 -2.336360 0.000000 0.000000 0.000000 -1.438975 -1.086679 0.916038 1.278786 8.282243 -5.884517 0.000000 0.000000 0.000000 5.487390 -5.716229 -69.262571 10.995032 -23.144448 4.299473 0.000000 0.000000 0.000000 -1.438975 -1.086679 0.916038 0.653106 6.246605 2.354861 0.000000 0.000000 0.000000 1.709284 -0.054534 76.942088 10.204119 11.314848 -3.125140 0.000000 0.000000 0.000000 
82.487289 117.130440 191.877594 0.000000 0.000000 0.000000 -2.690110 45.055220 7.714714 -13.334979 9.821691 -14.139292 27.221244 -11.733760 -0.562785 19.920955 -0.729682 14.611086 -29.078188 0.094175 1.049654 0.000000 0.000000 0.000000 -2.690110 45.055220 7.714714 -22.009571 17.219899 -1.046581 45.417811 -6.924177 -0.541261 32.297192 -5.745423 -4.727884 -35.687568 -0.924237 7.382150 0.000000 0.000000 0.000000 -2.690110 45.055220 7.714714 3.267098 -1.457563 -7.240223 -1.777615 -1.610059 1.334798 0.000000 0.000000 0.000000 0.000000 0.000000 0.000000 -1.884348 -1.504945 1.444945 -6.959355 2.850379 2.091297 3.091849 7.132213 -2.654659 0.000000 0.000000 0.000000 -1.884348 -1.504945 1.444945 1.160517 7.595449 -5.207532 0.000000 0.000000 0.000000 4.128661 -7.551711 -69.228987 10.365306 -23.115713 4.027324 0.000000 0.000000 0.000000 -1.884348 -1.504945 1.444945 0.551898 5.166439 2.977073 0.000000 0.000000 0.000000 2.826251 -0.847822 76.289900 9.960782 11.547362 -3.248047 0.000000 0.000000 0.000000 
84.695358 118.270515 194.844254 0.000000 0.000000 0.000000 -2.264667 47.235379 6.096229 -10.783642 8.556731 -12.801439 25.406612 -13.846295 -0.770200 19.287355 -0.767272 15.072525 -29.556230 0.050807 1.171686 0.000000 0.000000 0.000000 -2.264667 47.235379 6.096229 -24.370769 18.687118 -0.418318 39.493906 -7.986348 -0.636188 30.276285 -5.662445 -1.952464 -34.165740 -0.546954 6.157920 0.000000 0.000000 0.000000 -2.264667 47.235379 6.096229 3.740460 -1.761019 -6.446269 -1.917042 -1.870129 1.566975 0.000000 0.000000 0.000000 0.000000 0.000000 0.000000 -2.016496 -1.745485 1.688300 -7.136430 2.301320 2.835101 3.015808 6.976170 -2.961341 0.000000 0.000000 0.000000 -2.016496 -1.745485 1.688300 1.054433 6.658273 -4.553236 0.000000 0.000000 0.000000 2.584421 -8.729331 -69.170740 10.931288 -23.345682 4.316945 0.000000 0.000000 0.000000 -2.016496 -1.745485 1.688300 0.468852 4.296569 3.807813 0.000000 0.000000 0.000000 3.712521 -1.736356 75.758081 10.237054 11.570043 -3.600597 0.000000 0.000000 0.000000 
87.078613 119.484695 197.770447 0.000000 0.000000 0.000000 -2.163532 49.519384 5.076335 -7.421515 7.548660 -11.574424 22.627189 -15.663622 -1.098572 18.790296 -0.628889 15.302844 -29.486531 0.109542 0.655198 0.000000 0.000000 0.000000 -2.163532 49.519384 5.076335 -25.290883 18.874365 -0.734538 31.472272 -7.172912 -0.591264 31.772589 -6.602929 -1.893656 -32.922499 -0.290720 5.066557 0.000000 0.000000 0.000000 -2.163532 49.519384 5.076335 4.184679 -2.110004 -5.930904 -1.841600 -2.103297 1.635291 0.000000 0.000000 0.000000 0.000000 0.000000 0.000000 -1.933949 -1.969560 1.771418 -7.622177 1.684665 3.811172 2.836206 6.844584 -3.158515 0.000000 0.000000 0.000000 -1.933949 -1.969560 1.771418 0.962493 5.850591 -3.864040 0.000000 0.000000 0.000000 1.159741 -10.429476 -69.015346 13.345975 -23.809944 5.443308 0.000000 0.000000 0.000000 -1.933949 -1.969560 1.771418 0.359066 3.439808 5.059001 0.000000 0.000000 0.000000 4.090947 -2.510064 75.024239 10.948091 11.114786 -3.908198 0.000000 0.000000 0.000000 
